<svg width="153" height="19" viewBox="0 0 153 19" fill="none" xmlns="http://www.w3.org/2000/svg">
<path d="M76.6627 16.374H71.5427V2.68599H76.6627V16.374ZM72.0427 15.874H76.1627V3.18599H72.0427V15.874ZM83.7867 16.374H78.7697V2.68599H89.2517C90.7533 2.56439 92.2487 2.98596 93.4657 3.87399C93.9896 4.3533 94.3957 4.94718 94.6522 5.60928C94.9088 6.27139 95.0089 6.98382 94.9447 7.69099C95.0195 8.91296 94.6306 10.1182 93.8557 11.066C92.9387 12.118 91.4127 12.66 89.3207 12.679C88.7937 12.693 84.8447 12.679 83.7897 12.679L83.7867 16.374ZM79.2667 15.874H83.2867V12.174H83.5377C83.5887 12.174 88.7157 12.19 89.3087 12.174C91.2577 12.157 92.6587 11.674 93.4777 10.731C94.1675 9.87344 94.5101 8.78814 94.4377 7.68999C94.4992 7.05636 94.4139 6.41708 94.1885 5.82173C93.963 5.22638 93.6035 4.69096 93.1377 4.25699C92.0093 3.44709 90.6287 3.06692 89.2447 3.18499H79.2697L79.2667 15.874ZM88.1897 9.60399H83.2527V5.87799H88.2227C88.575 5.82931 88.9339 5.87043 89.266 5.99752C89.5982 6.12462 89.8929 6.33357 90.1227 6.60499C90.3312 6.95193 90.4295 7.35397 90.4047 7.75799C90.4234 8.13309 90.3424 8.50646 90.1697 8.83999C89.9326 9.12587 89.6259 9.34594 89.2791 9.47904C88.9324 9.61214 88.5572 9.65379 88.1897 9.59999V9.60399ZM83.7527 9.10399H88.1897C89.0097 9.10399 89.5177 8.93299 89.7427 8.58099C89.8666 8.32514 89.9227 8.04175 89.9057 7.75799C89.9276 7.46005 89.863 7.16213 89.7197 6.89999L89.7137 6.89099C89.4757 6.54099 89.0027 6.37799 88.2227 6.37799H83.7527V9.10399ZM104.07 16.576C99.5797 16.576 96.8997 15.461 95.8787 13.168C95.7116 12.7251 95.5982 12.2638 95.5407 11.794L95.4967 11.506H100.839L100.874 11.716C100.915 11.9292 101.006 12.1299 101.138 12.302C101.349 12.557 102.053 12.985 104.389 12.985C107.197 12.985 107.197 12.492 107.197 12.227C107.197 11.78 106.872 11.627 104.582 11.383L104.147 11.342C103.285 11.261 102.195 11.158 101.697 11.115C97.4967 10.735 95.6217 9.42999 95.6217 6.88499C95.6217 4.21199 98.8127 2.48499 103.752 2.48499C107.781 2.48499 110.377 3.54699 111.466 5.64399C111.724 6.13177 111.898 6.65998 111.979 7.20599L112.014 7.48699H106.666L106.644 7.26099C106.623 7.08437 106.548 6.91868 106.428 6.78699C106.228 6.51899 105.596 6.07599 103.634 6.07599C101.225 6.07599 100.893 6.38399 100.893 6.71599C100.893 7.15899 101.654 7.31599 104.093 7.57699C105.11 7.65999 106.745 7.82799 107.305 7.89599C110.826 8.27799 112.397 9.55099 112.397 12.025C112.398 14.1 110.953 16.576 104.07 16.576ZM96.0807 12.006C96.1308 12.3358 96.217 12.659 96.3377 12.97C97.2677 15.059 99.7977 16.076 104.07 16.076C107.642 16.076 111.901 15.376 111.901 12.025C111.901 9.83199 110.511 8.74599 107.252 8.39299C106.692 8.32499 105.067 8.15799 104.052 8.07399C101.452 7.79199 100.395 7.64199 100.395 6.71599C100.395 5.75799 101.534 5.57599 103.636 5.57599C105.297 5.57599 106.37 5.87599 106.825 6.48099C106.949 6.63004 107.043 6.80194 107.101 6.98699H111.435C111.348 6.60023 111.21 6.22668 111.025 5.87599C110.025 3.95699 107.582 2.98499 103.754 2.98499C99.1187 2.98499 96.1237 4.51599 96.1237 6.88499C96.1237 9.14499 97.8047 10.261 101.743 10.617C102.243 10.66 103.332 10.763 104.196 10.845L104.634 10.886C106.761 11.11 107.699 11.25 107.699 12.227C107.699 13.279 106.486 13.485 104.391 13.485C102.453 13.485 101.229 13.194 100.756 12.621C100.61 12.4383 100.5 12.2296 100.432 12.006H96.0807ZM121.897 16.559C116.677 16.559 113.797 14.448 113.797 10.614V2.68599H118.849V10.614C118.849 11.929 120.026 12.683 122.077 12.683C124.037 12.683 125.254 11.896 125.254 10.631V2.68599H130.254V11.034C130.259 14.545 127.21 16.559 121.894 16.559H121.897ZM114.297 3.18599V10.614C114.297 15.352 119.055 16.059 121.897 16.059C124.835 16.059 129.762 15.406 129.762 11.034V3.18599H125.762V10.631C125.762 12.181 124.318 13.183 122.085 13.183C119.751 13.183 118.357 12.223 118.357 10.614V3.18599H114.297ZM151.442 16.374H146.674V10.194L143.97 16.374H139.811L137.135 10.206V16.374H132.35V2.68599H138.644L141.914 10.233L145.342 2.68599H151.448L151.442 16.374ZM147.174 15.874H150.942V3.18599H145.66L141.898 11.465L138.312 3.18599H132.846V15.874H136.631V7.79999L140.131 15.877H143.631L147.168 7.81199L147.174 15.874ZM7.02373 2.93599H2.46973V16.124H15.0537V12.613H7.02373V2.93599ZM24.2457 2.63599C18.4327 2.63599 15.3757 5.39099 15.3757 9.43599C15.3757 14.006 18.5847 16.324 24.2457 16.324C30.4777 16.324 33.0987 13.636 33.0987 9.43599C33.0987 5.17099 30.1417 2.63399 24.2457 2.63399V2.63599ZM24.2287 6.06299C24.6244 6.06113 25.0199 6.08417 25.4127 6.13199L20.3217 11.223C20.0808 10.6781 19.9633 10.0866 19.9777 9.49099C19.9777 7.42199 21.0197 6.06099 24.2287 6.06099V6.06299ZM24.2457 12.951C23.8644 12.9527 23.4834 12.9313 23.1047 12.887L28.2047 7.78699C28.4366 8.32289 28.5476 8.90332 28.5297 9.48699C28.5297 11.5 27.5697 12.949 24.2457 12.949V12.951ZM42.1217 11.151H46.8087C46.7397 11.4763 46.5959 11.781 46.3887 12.041C45.417 12.8326 44.1769 13.2178 42.9277 13.116C42.2989 13.1833 41.6631 13.1146 41.0632 12.9146C40.4633 12.7147 39.9133 12.3881 39.4507 11.957C38.9768 11.2619 38.7517 10.4271 38.8117 9.58799C38.735 8.70873 38.9798 7.83151 39.5007 7.11899C40.1557 6.37899 41.2647 6.05999 42.8947 6.05999C43.9318 5.97412 44.9676 6.24047 45.8347 6.81599C46.108 7.03307 46.3123 7.3249 46.4227 7.65599H50.7697C50.7381 7.11046 50.6069 6.57532 50.3827 6.07699C49.3417 3.95999 46.9217 2.69999 42.8067 2.69999C39.2277 2.69999 36.8257 3.79199 35.4987 5.43899C34.6223 6.62835 34.1724 8.07843 34.2217 9.55499C34.165 11.065 34.6033 12.5521 35.4697 13.79C36.7807 15.49 39.1157 16.326 41.9217 16.326C43.7872 16.4561 45.64 15.9336 47.1627 14.848L47.2807 16.124H50.8917V8.31199H42.1217V11.151ZM61.1407 2.63299C55.3287 2.63299 52.2707 5.38799 52.2707 9.43299C52.2707 14.003 55.4787 16.321 61.1407 16.321C67.3737 16.321 69.9947 13.633 69.9947 9.43299C69.9947 5.17099 67.0377 2.63399 61.1407 2.63399V2.63299ZM61.1247 6.05999C61.51 6.05885 61.895 6.08089 62.2777 6.12599L57.2067 11.2C56.9733 10.6611 56.8597 10.0781 56.8737 9.49099C56.8697 7.42199 57.9157 6.06099 61.1247 6.06099V6.05999ZM61.1407 12.948C60.7493 12.9497 60.3582 12.9269 59.9697 12.88L65.0867 7.76199C65.3274 8.30502 65.4426 8.89531 65.4237 9.48899C65.4257 11.5 64.4697 12.949 61.1407 12.949V12.948Z" fill="#DAC5A7"/>
</svg>
