<svg width="100" height="25" viewBox="0 0 100 25" fill="none" xmlns="http://www.w3.org/2000/svg">
<path d="M2.45081 23.1875H23.8258V1.8125H2.45081V23.1875ZM19.7117 10.4433H15.195V5.92667H19.7117V10.4433ZM6.56414 5.92667H11.0833V14.5567H19.7117V19.0733H6.56414V5.92667ZM37.745 1.8125C35.6312 1.8125 33.5648 2.43932 31.8073 3.61367C30.0497 4.78803 28.6799 6.45719 27.871 8.41008C27.0621 10.363 26.8505 12.5118 27.2628 14.585C27.6752 16.6582 28.6931 18.5625 30.1877 20.0572C31.6824 21.5519 33.5867 22.5697 35.6599 22.9822C37.7332 23.3945 39.882 23.1829 41.8349 22.374C43.7878 21.5651 45.4569 20.1952 46.6313 18.4377C47.8057 16.6801 48.4325 14.6137 48.4325 12.5C48.4292 9.6665 47.3021 6.95003 45.2985 4.94646C43.2949 2.94288 40.5785 1.81581 37.745 1.8125ZM37.745 19.0733C36.4449 19.0733 35.174 18.6878 34.093 17.9655C33.0121 17.2432 32.1695 16.2167 31.672 15.0155C31.1745 13.8144 31.0443 12.4927 31.2979 11.2176C31.5516 9.9425 32.1777 8.77125 33.0969 7.85195C34.0162 6.93266 35.1875 6.30661 36.4626 6.05298C37.7377 5.79934 39.0593 5.92952 40.2605 6.42703C41.4616 6.92455 42.4882 7.76707 43.2105 8.84808C43.9328 9.929 44.3183 11.1999 44.3183 12.5C44.3157 14.2426 43.6222 15.913 42.3901 17.1452C41.1579 18.3773 39.4875 19.0707 37.745 19.0733ZM86.6775 1.8125C84.5633 1.81234 82.4972 2.43901 80.7396 3.61327C78.9819 4.78752 77.612 6.45662 76.8029 8.4095C75.9939 10.3623 75.7821 12.5113 76.1944 14.5845C76.6067 16.6577 77.6245 18.5622 79.1192 20.0569C80.6137 21.5517 82.5181 22.5697 84.5917 22.9821C86.6642 23.3945 88.8133 23.1829 90.7667 22.3741C92.7192 21.5652 94.3883 20.1953 95.5625 18.4377C96.7375 16.6802 97.3642 14.6138 97.3642 12.5C97.3608 9.66667 96.2342 6.9503 94.2308 4.94675C92.2275 2.94319 89.5108 1.81603 86.6775 1.8125ZM86.6775 19.0733C85.3775 19.0735 84.1067 18.6881 83.0253 17.9659C81.9442 17.2437 81.1016 16.2172 80.6039 15.0161C80.1062 13.815 79.976 12.4932 80.2295 11.2181C80.4831 9.943 81.1091 8.77167 82.0283 7.85225C82.9476 6.93287 84.1192 6.30673 85.3942 6.05303C86.6692 5.79933 87.9908 5.92946 89.1917 6.42696C90.3933 6.92445 91.42 7.76697 92.1425 8.848C92.8642 9.929 93.25 11.1999 93.25 12.5C93.2475 14.2424 92.5542 15.9127 91.3217 17.1448C90.09 18.377 88.42 19.0705 86.6775 19.0733ZM62.2108 1.8125C60.097 1.8125 58.0307 2.43932 56.2732 3.61367C54.5156 4.78803 53.1457 6.45719 52.3368 8.41008C51.5279 10.363 51.3163 12.5118 51.7287 14.585C52.1411 16.6582 53.1589 18.5625 54.6536 20.0572C56.1482 21.5519 58.0526 22.5697 60.1257 22.9822C62.1989 23.3945 64.3478 23.1829 66.3007 22.374C68.2537 21.5651 69.9227 20.1952 71.0972 18.4377C72.2715 16.6801 72.8983 14.6137 72.8983 12.5C72.895 9.6665 71.7679 6.95003 69.7643 4.94646C67.7607 2.94288 65.0443 1.81581 62.2108 1.8125ZM62.2108 19.0733C60.9995 19.0739 59.8117 18.7398 58.7782 18.1079C57.7449 17.476 56.9062 16.5709 56.3547 15.4924C55.8034 14.4139 55.5607 13.204 55.6535 11.9963C55.7463 10.7886 56.171 9.63 56.8807 8.64842C57.5905 7.66688 58.5577 6.90051 59.6754 6.43393C60.7932 5.96733 62.0182 5.81868 63.2152 6.00437C64.4122 6.19006 65.5345 6.70286 66.4584 7.48618C67.3823 8.2695 68.0718 9.29292 68.4508 10.4433H62.2108V14.5567H68.4508C68.0167 15.8694 67.1804 17.0123 66.0603 17.8229C64.9403 18.6337 63.5935 19.0711 62.2108 19.0733Z" fill="#DAC5A7"/>
</svg>
