<svg width="141" height="31" viewBox="0 0 141 31" fill="none" xmlns="http://www.w3.org/2000/svg">
<path d="M23.1615 13.871C22.7825 14.2523 22.4923 14.7125 22.3115 15.2187C22.1307 15.725 22.0638 16.2649 22.1155 16.8L22.0975 16.782C22.1507 17.4119 22.0657 18.0457 21.8486 18.6394C21.6315 19.233 21.2875 19.7721 20.8406 20.2191C20.3936 20.666 19.8545 21.0101 19.2608 21.2271C18.6672 21.4442 18.0333 21.5292 17.4035 21.476L17.4215 21.494C16.6681 21.4239 15.9114 21.5878 15.2545 21.9635C14.5977 22.3392 14.0727 22.9083 13.7512 23.5933C13.4297 24.2783 13.3272 25.0457 13.4578 25.7911C13.5885 26.5364 13.9458 27.2233 14.4811 27.7581C15.0164 28.2929 15.7036 28.6496 16.449 28.7795C17.1945 28.9095 17.9618 28.8063 18.6465 28.4842C19.3312 28.162 19.8998 27.6366 20.2749 26.9794C20.65 26.3222 20.8133 25.5654 20.7425 24.812L20.7615 24.83C20.7083 24.2002 20.7932 23.5663 21.0103 22.9726C21.2274 22.379 21.5715 21.8399 22.0184 21.3929C22.4654 20.946 23.0045 20.6019 23.5981 20.3849C24.1918 20.1678 24.8256 20.0828 25.4555 20.136L25.4365 20.118C26.0519 20.1733 26.6714 20.0724 27.2375 19.8246C27.8035 19.5768 28.2979 19.1901 28.6747 18.7004C29.0515 18.2107 29.2987 17.6337 29.3931 17.0231C29.4876 16.4124 29.4264 15.7878 29.2152 15.207C29.004 14.6263 28.6496 14.1083 28.1849 13.701C27.7202 13.2937 27.1602 13.0103 26.5568 12.8771C25.9534 12.7439 25.3261 12.7651 24.7331 12.9388C24.1401 13.1126 23.6006 13.4332 23.1645 13.871H23.1615Z" fill="#DAC5A7"/>
<path d="M15.7845 19.136L15.7655 19.118C16.3008 19.1719 16.8414 19.1062 17.3483 18.9256C17.8551 18.745 18.3155 18.4541 18.6961 18.0738C19.0766 17.6935 19.368 17.2333 19.5489 16.7266C19.7299 16.2199 19.796 15.6794 19.7425 15.144L19.7615 15.162C19.7083 14.5321 19.7933 13.8983 20.0103 13.3046C20.2274 12.711 20.5715 12.1719 21.0184 11.7249C21.4654 11.278 22.0045 10.9339 22.5981 10.7169C23.1918 10.4998 23.8256 10.4148 24.4555 10.468L24.4365 10.45C25.19 10.5208 25.9469 10.3574 26.6041 9.9821C27.2614 9.60684 27.7868 9.03797 28.1088 8.3531C28.4308 7.66824 28.5337 6.90071 28.4035 6.1552C28.2733 5.40969 27.9163 4.72251 27.3811 4.18737C26.846 3.65224 26.1588 3.2952 25.4133 3.16498C24.6678 3.03475 23.9003 3.13766 23.2154 3.45968C22.5305 3.78169 21.9617 4.30714 21.5864 4.96435C21.2111 5.62155 21.0477 6.37852 21.1185 7.132L21.1005 7.113C21.1538 7.74289 21.069 8.37683 20.852 8.97055C20.635 9.56427 20.2909 10.1035 19.844 10.5505C19.397 10.9974 18.8578 11.3415 18.2641 11.5585C17.6703 11.7755 17.0364 11.8603 16.4065 11.807L16.4245 11.826C15.8892 11.7721 15.3485 11.8378 14.8417 12.0184C14.3349 12.1989 13.8745 12.4899 13.4939 12.8702C13.1133 13.2505 12.822 13.7107 12.641 14.2174C12.4601 14.7241 12.394 15.2646 12.4475 15.8L12.4295 15.782C12.4825 16.4118 12.3974 17.0456 12.1803 17.6392C11.9631 18.2327 11.6191 18.7718 11.1722 19.2187C10.7252 19.6656 10.1862 20.0096 9.59262 20.2268C8.99906 20.4439 8.36527 20.529 7.73546 20.476L7.75346 20.494C6.99998 20.4232 6.24301 20.5866 5.5858 20.9619C4.9286 21.3372 4.40315 21.906 4.08114 22.5909C3.75912 23.2758 3.6562 24.0433 3.78643 24.7888C3.91666 25.5343 4.2737 26.2215 4.80883 26.7566C5.34397 27.2918 6.03115 27.6488 6.77666 27.779C7.52217 27.9092 8.2897 27.8063 8.97457 27.4843C9.65943 27.1623 10.2283 26.6369 10.6036 25.9797C10.9789 25.3224 11.1423 24.5655 11.0715 23.812L11.0905 23.83C11.0373 23.2001 11.1223 22.5663 11.3394 21.9726C11.5564 21.379 11.9005 20.8399 12.3474 20.3929C12.7944 19.946 13.3335 19.6019 13.9271 19.3849C14.5208 19.1678 15.1546 19.0828 15.7845 19.136Z" fill="#DAC5A7"/>
<path d="M9.0824 17.129C9.46142 16.7478 9.7516 16.2876 9.93224 15.7813C10.1129 15.275 10.1795 14.735 10.1274 14.2L10.1464 14.218C10.0932 13.588 10.1781 12.9539 10.3954 12.3601C10.6126 11.7663 10.9568 11.2271 11.404 10.7801C11.8512 10.3331 12.3905 9.98913 12.9844 9.77218C13.5783 9.55522 14.2124 9.47052 14.8424 9.524L14.8234 9.506C15.5766 9.57657 16.3333 9.41308 16.9902 9.03784C17.6471 8.66261 18.1722 8.09388 18.4941 7.40923C18.8159 6.72457 18.9187 5.95732 18.7885 5.21209C18.6583 4.46686 18.3013 3.77994 17.7664 3.245C17.2315 2.71006 16.5445 2.35314 15.7993 2.22292C15.0541 2.09269 14.2868 2.19551 13.6022 2.51733C12.9175 2.83915 12.3488 3.36432 11.9736 4.02122C11.5983 4.67812 11.4348 5.43478 11.5054 6.188L11.4874 6.17C11.5406 6.79985 11.4556 7.43372 11.2385 8.02736C11.0214 8.621 10.6774 9.16011 10.2305 9.60707C9.78351 10.054 9.24439 10.3981 8.65075 10.6151C8.05711 10.8322 7.42325 10.9172 6.7934 10.864L6.8114 10.882C6.19597 10.8268 5.57656 10.9279 5.01058 11.1758C4.4446 11.4237 3.95035 11.8105 3.57364 12.3003C3.19693 12.79 2.94995 13.367 2.85557 13.9776C2.7612 14.5883 2.82249 15.2129 3.03376 15.7935C3.24503 16.3742 3.59946 16.8921 4.06419 17.2993C4.52892 17.7066 5.08892 17.9899 5.6923 18.1231C6.29567 18.2562 6.9229 18.2349 7.51587 18.0612C8.10883 17.8874 8.64833 17.5668 9.08439 17.129H9.0824Z" fill="#DAC5A7"/>
<path d="M40.0594 7.15503H43.0294V21.608H40.0594V7.15503Z" fill="#DAC5A7"/>
<path d="M44.7114 16.659C44.7073 15.6204 45.0115 14.6038 45.5855 13.7382C46.1595 12.8726 46.9775 12.1968 47.9359 11.7965C48.8943 11.3961 49.9499 11.2892 50.9691 11.4893C51.9883 11.6894 52.9252 12.1874 53.6611 12.9204C54.397 13.6533 54.8988 14.5882 55.103 15.6066C55.3072 16.625 55.2045 17.6811 54.808 18.6411C54.4115 19.601 53.739 20.4218 52.8757 20.9992C52.0123 21.5767 50.9971 21.885 49.9584 21.885C49.269 21.8929 48.5849 21.7632 47.9461 21.5036C47.3073 21.244 46.7267 20.8597 46.2382 20.3732C45.7496 19.8866 45.363 19.3075 45.1009 18.6698C44.8387 18.0321 44.7063 17.3485 44.7114 16.659ZM52.2354 16.659C52.223 16.2113 52.0789 15.7772 51.8212 15.4109C51.5634 15.0447 51.2034 14.7625 50.7862 14.5998C50.3689 14.437 49.913 14.4008 49.4753 14.4958C49.0376 14.5908 48.6376 14.8126 48.3253 15.1337C48.0131 15.4547 47.8023 15.8607 47.7196 16.3009C47.6368 16.741 47.6855 17.1958 47.8598 17.6084C48.0341 18.021 48.3261 18.373 48.6993 18.6205C49.0726 18.868 49.5106 19 49.9584 19C50.2651 19.0082 50.5702 18.9527 50.8545 18.8371C51.1387 18.7215 51.3959 18.5483 51.6098 18.3284C51.8237 18.1084 51.9898 17.8465 52.0974 17.5592C52.2051 17.2719 52.2521 16.9654 52.2354 16.659Z" fill="#DAC5A7"/>
<path d="M67.0425 11.709V21.109C67.0425 24.435 64.4485 25.841 61.8155 25.841C60.8885 25.9104 59.9602 25.7231 59.1325 25.2998C58.3049 24.8764 57.6098 24.2333 57.1235 23.441L59.6575 21.976C59.8619 22.389 60.1876 22.7297 60.5909 22.9526C60.9943 23.1754 61.4561 23.2698 61.9145 23.223C62.2075 23.2636 62.5059 23.2378 62.7876 23.1475C63.0692 23.0572 63.327 22.9047 63.5418 22.7014C63.7566 22.498 63.9229 22.249 64.0285 21.9726C64.134 21.6963 64.176 21.3998 64.1515 21.105V20.2C63.8037 20.6255 63.3611 20.9636 62.859 21.1871C62.3569 21.4106 61.8095 21.5133 61.2605 21.487C59.9543 21.4458 58.7154 20.898 57.806 19.9594C56.8966 19.0209 56.3881 17.7653 56.3881 16.4585C56.3881 15.1517 56.8966 13.8961 57.806 12.9576C58.7154 12.019 59.9543 11.4712 61.2605 11.43C61.8095 11.4037 62.3569 11.5064 62.859 11.7299C63.3611 11.9534 63.8037 12.2915 64.1515 12.717V11.707L67.0425 11.709ZM64.1525 16.46C64.1725 15.9814 64.0487 15.5077 63.7972 15.1C63.5457 14.6922 63.1779 14.3691 62.7412 14.1722C62.3045 13.9752 61.8189 13.9135 61.3468 13.9949C60.8747 14.0763 60.4378 14.2971 60.0922 14.629C59.7467 14.9608 59.5084 15.3884 59.4079 15.8568C59.3075 16.3252 59.3495 16.813 59.5287 17.2573C59.7078 17.7016 60.0158 18.0822 60.413 18.35C60.8102 18.6178 61.2785 18.7606 61.7575 18.76C62.0696 18.7818 62.3827 18.738 62.6768 18.6314C62.9709 18.5248 63.2394 18.3577 63.465 18.1411C63.6906 17.9244 63.8684 17.6629 63.9868 17.3733C64.1052 17.0838 64.1617 16.7727 64.1525 16.46Z" fill="#DAC5A7"/>
<path d="M68.7244 16.659C68.7203 15.6204 69.0244 14.6038 69.5985 13.7382C70.1725 12.8726 70.9905 12.1968 71.9489 11.7965C72.9073 11.3961 73.9629 11.2892 74.9821 11.4893C76.0013 11.6894 76.9382 12.1874 77.6741 12.9204C78.41 13.6533 78.9118 14.5882 79.116 15.6066C79.3202 16.625 79.2175 17.6811 78.821 18.6411C78.4245 19.601 77.752 20.4218 76.8887 20.9992C76.0253 21.5767 75.0101 21.885 73.9714 21.885C73.282 21.8929 72.5978 21.7632 71.9591 21.5036C71.3203 21.244 70.7397 20.8597 70.2512 20.3732C69.7626 19.8866 69.376 19.3075 69.1139 18.6698C68.8517 18.0321 68.7193 17.3485 68.7244 16.659ZM76.2484 16.659C76.236 16.2113 76.0919 15.7772 75.8342 15.4109C75.5764 15.0447 75.2164 14.7625 74.7992 14.5998C74.3819 14.437 73.9259 14.4008 73.4883 14.4958C73.0506 14.5908 72.6506 14.8126 72.3383 15.1337C72.0261 15.4547 71.8153 15.8607 71.7325 16.3009C71.6497 16.741 71.6985 17.1958 71.8728 17.6084C72.0471 18.021 72.3391 18.373 72.7123 18.6205C73.0856 18.868 73.5235 19 73.9714 19C74.2781 19.0082 74.5832 18.9527 74.8674 18.8371C75.1517 18.7215 75.4089 18.5483 75.6228 18.3284C75.8367 18.1084 76.0028 17.8465 76.1104 17.5592C76.2181 17.2719 76.2651 16.9654 76.2484 16.659Z" fill="#DAC5A7"/>
<path d="M80.6034 9.05599C80.6034 8.70354 80.7079 8.35901 80.9037 8.06597C81.0995 7.77292 81.3779 7.54451 81.7035 7.40964C82.0291 7.27476 82.3874 7.23947 82.7331 7.30823C83.0787 7.37699 83.3963 7.54671 83.6455 7.79593C83.8947 8.04514 84.0644 8.36266 84.1332 8.70834C84.2019 9.05401 84.1666 9.41231 84.0318 9.73793C83.8969 10.0635 83.6685 10.3419 83.3754 10.5377C83.0824 10.7335 82.7379 10.838 82.3854 10.838C81.9143 10.8333 81.4637 10.6441 81.1305 10.3109C80.7974 9.97769 80.6081 9.52715 80.6034 9.05599ZM80.9034 11.709H83.8744V21.609H80.8994L80.9034 11.709Z" fill="#DAC5A7"/>
<path d="M96.6985 16.659C96.7328 17.3133 96.6375 17.9679 96.4179 18.5852C96.1984 19.2025 95.859 19.7703 95.4192 20.256C94.9795 20.7416 94.448 21.1356 93.8555 21.4152C93.2629 21.6947 92.621 21.8544 91.9665 21.885C91.4161 21.915 90.866 21.8222 90.3559 21.6133C89.8458 21.4043 89.3887 21.0845 89.0175 20.677V25.568H86.0475V11.709H89.0175V12.639C89.3888 12.2318 89.8461 11.9122 90.3561 11.7035C90.8662 11.4947 91.4162 11.402 91.9665 11.432C92.6211 11.4625 93.2632 11.6221 93.8559 11.9017C94.4486 12.1813 94.9801 12.5753 95.4199 13.0611C95.8597 13.5469 96.1991 14.1149 96.4185 14.7324C96.6379 15.3498 96.7331 16.0046 96.6985 16.659ZM93.7285 16.659C93.7169 16.1957 93.5689 15.7461 93.303 15.3664C93.0371 14.9868 92.6652 14.694 92.2338 14.5248C91.8023 14.3555 91.3305 14.3172 90.8774 14.4148C90.4243 14.5123 90.0101 14.7413 89.6865 15.0731C89.3629 15.405 89.1444 15.8248 89.0583 16.2803C88.9722 16.7357 89.0223 17.2063 89.2024 17.6334C89.3824 18.0605 89.6845 18.4249 90.0707 18.6812C90.4569 18.9374 90.91 19.0741 91.3735 19.074C91.6917 19.0882 92.0093 19.0349 92.3055 18.9177C92.6016 18.8006 92.8697 18.6221 93.092 18.3941C93.3144 18.166 93.486 17.8936 93.5957 17.5946C93.7054 17.2956 93.7507 16.9767 93.7285 16.659Z" fill="#DAC5A7"/>
<path d="M105.863 18.638C105.863 20.915 103.884 21.885 101.746 21.885C100.882 21.9632 100.015 21.7806 99.2562 21.3605C98.4973 20.9405 97.8819 20.3025 97.4894 19.529L100.062 18.064C100.166 18.4215 100.39 18.7326 100.696 18.9451C101.001 19.1577 101.371 19.259 101.742 19.232C102.454 19.232 102.811 19.014 102.811 18.619C102.811 17.529 97.9404 18.104 97.9404 14.679C97.9404 12.52 99.7624 11.432 101.821 11.432C102.595 11.4075 103.361 11.5911 104.04 11.9636C104.719 12.3362 105.286 12.884 105.681 13.55L103.147 14.916C103.036 14.6567 102.851 14.4358 102.615 14.2809C102.379 14.126 102.103 14.044 101.821 14.045C101.306 14.045 100.989 14.245 100.989 14.599C100.993 15.728 105.863 14.975 105.863 18.638Z" fill="#DAC5A7"/>
<path d="M116.712 11.709V21.609H113.742V20.678C113.399 21.0888 112.964 21.4125 112.472 21.6225C111.98 21.8325 111.446 21.9228 110.912 21.886C108.912 21.886 107.212 20.461 107.212 17.786V11.709H110.182V17.351C110.157 17.5868 110.184 17.8252 110.261 18.0495C110.337 18.2739 110.462 18.4789 110.626 18.6502C110.79 18.8215 110.989 18.955 111.21 19.0415C111.43 19.128 111.667 19.1654 111.904 19.151C112.993 19.151 113.745 18.518 113.745 17.112V11.712L116.712 11.709Z" fill="#DAC5A7"/>
<path d="M133.742 15.53V21.608H130.772V15.787C130.772 14.797 130.297 14.164 129.347 14.164C128.357 14.164 127.802 14.857 127.802 16.025V21.608H124.833V15.787C124.833 14.797 124.358 14.164 123.407 14.164C122.417 14.164 121.863 14.857 121.863 16.025V21.608H118.893V11.708H121.863V12.618C122.171 12.2143 122.575 11.8941 123.038 11.6868C123.502 11.4794 124.01 11.3915 124.516 11.431C125.024 11.4061 125.53 11.5134 125.985 11.7423C126.439 11.9711 126.826 12.3139 127.109 12.737C127.438 12.2943 127.874 11.9423 128.376 11.7139C128.878 11.4855 129.43 11.3882 129.98 11.431C132.253 11.432 133.742 13.055 133.742 15.53Z" fill="#DAC5A7"/>
<path d="M136.254 11.648C137.471 11.648 138.458 10.6612 138.458 9.44399C138.458 8.22675 137.471 7.23999 136.254 7.23999C135.037 7.23999 134.05 8.22675 134.05 9.44399C134.05 10.6612 135.037 11.648 136.254 11.648Z" fill="#DAC5A7"/>
</svg>
