<svg width="53" height="35" viewBox="0 0 53 35" fill="none" xmlns="http://www.w3.org/2000/svg">
<g clip-path="url(#clip0_1_242)">
<path d="M49.5369 1.09375C49.5369 1.69781 50.0265 2.1875 50.6306 2.1875H51.7244C52.3285 2.1875 52.8181 1.69781 52.8181 1.09375C52.8181 0.489689 52.3285 0 51.7244 0H50.6306C50.0265 0 49.5369 0.489689 49.5369 1.09375Z" fill="#DAC5A7"/>
<path d="M17.8181 35H23.1314L21.5846 33.4532C21.1744 33.043 20.6179 32.8125 20.0378 32.8125H17.8181C9.36124 32.8125 2.50562 25.9569 2.50562 17.5C2.50562 9.04313 9.36124 2.18751 17.8181 2.1875H35.3181C43.775 2.1875 50.6306 9.04313 50.6306 17.5C50.6306 25.9569 43.775 32.8125 35.3181 32.8125H28.7717C27.9014 32.8125 27.0669 32.4668 26.4515 31.8515L24.6394 30.0393C23.6138 29.0137 22.2227 28.4375 20.7723 28.4375H17.8181C11.7775 28.4375 6.88062 23.5406 6.88062 17.5C6.88062 11.4593 11.7775 6.5625 17.8181 6.5625H35.3181C41.3588 6.5625 46.2556 11.4593 46.2556 17.5C46.2556 23.5406 41.3588 28.4375 35.3181 28.4375H31.1147C30.2444 28.4375 29.4099 28.0918 28.7945 27.4765L26.9823 25.6643C25.9567 24.6387 24.5657 24.0625 23.1153 24.0625H17.8181C14.1938 24.0625 11.2556 21.1243 11.2556 17.5C11.2556 13.8757 14.1938 10.9375 17.8181 10.9375H35.3181C38.9425 10.9375 41.8806 13.8757 41.8806 17.5C41.8806 21.0802 39.0137 23.9908 35.4504 24.0612L35.4497 24.0625H33.8491C32.9788 24.0625 32.1442 23.7168 31.5288 23.1015L29.7166 21.2893C28.8751 20.4477 27.7876 19.9088 26.6231 19.7424L26.5681 19.6875H17.8181C16.61 19.6875 15.6306 18.7081 15.6306 17.5C15.6306 16.2919 16.61 15.3125 17.8181 15.3125H35.3181C36.5262 15.3125 37.5056 16.2919 37.5056 17.5C37.5056 18.7081 36.5262 19.6875 35.3181 19.6875H30.9431L32.4899 21.2343C32.9001 21.6445 33.4566 21.875 34.0367 21.875H35.3181C37.7343 21.875 39.6931 19.9162 39.6931 17.5C39.6931 15.0838 37.7343 13.125 35.3181 13.125H17.8181C15.4019 13.125 13.4431 15.0838 13.4431 17.5C13.4431 19.9162 15.4019 21.875 17.8181 21.875H25.8497C26.7199 21.875 27.5545 22.2207 28.1699 22.836L29.9821 24.6482C31.0077 25.6738 32.3987 26.25 33.8491 26.25H35.865V26.2332C40.4427 25.9509 44.0681 22.1488 44.0681 17.5C44.0681 12.6676 40.1506 8.75 35.3181 8.75H17.8181C12.9857 8.75 9.06812 12.6676 9.06812 17.5C9.06812 22.3325 12.9857 26.25 17.8181 26.25H23.1153C23.9856 26.25 24.8201 26.5957 25.4355 27.211L27.2477 29.0232C28.2733 30.0488 29.6643 30.625 31.1147 30.625H35.3181C42.5669 30.625 48.4431 24.7488 48.4431 17.5C48.4431 10.2512 42.5669 4.375 35.3181 4.375H17.8181C10.5694 4.375 4.69312 10.2512 4.69312 17.5C4.69312 24.7488 10.5694 30.625 17.8181 30.625H20.7723C21.6426 30.625 22.4771 30.9707 23.0925 31.586L24.9047 33.3982C25.9303 34.4238 27.3213 35 28.7717 35H35.3181C44.9831 35 52.8181 27.165 52.8181 17.5C52.8181 7.83501 44.9831 -8.44939e-07 35.3181 0L17.8181 3.61606e-06C8.15313 4.461e-06 0.318114 7.83502 0.318115 17.5C0.318116 27.165 8.15314 35 17.8181 35Z" fill="#DAC5A7"/>
</g>
<defs>
<clipPath id="clip0_1_242">
<rect width="52.5" height="35" fill="white" transform="translate(0.318115)"/>
</clipPath>
</defs>
</svg>
