<svg width="79" height="31" viewBox="0 0 79 31" fill="none" xmlns="http://www.w3.org/2000/svg">
<g clip-path="url(#clip0_1_245)">
<path d="M18.9086 0.5C15.8625 0.5 12.9412 1.71005 10.7873 3.86396L3.75788 10.8934C1.60397 13.0473 0.393921 15.9686 0.393921 19.0147C0.393921 25.3579 5.53606 30.5 11.8792 30.5C14.9253 30.5 17.8466 29.2899 20.0005 27.136L24.8628 22.2737C24.8628 22.2736 24.8629 22.2738 24.8628 22.2737L39.0299 8.1066C40.0586 7.07791 41.4538 6.5 42.9086 6.5C45.3442 6.5 47.4091 8.08741 48.125 10.2841L52.5961 5.81296C50.5564 2.61834 46.9799 0.5 42.9086 0.5C39.8625 0.5 36.9412 1.71005 34.7873 3.86396L15.7579 22.8934C14.7292 23.9221 13.334 24.5 11.8792 24.5C8.84976 24.5 6.39392 22.0442 6.39392 19.0147C6.39392 17.5599 6.97183 16.1647 8.00052 15.136L15.0299 8.1066C16.0586 7.07791 17.4538 6.5 18.9086 6.5C21.3443 6.5 23.4091 8.08748 24.125 10.2842L28.5962 5.81307C26.5565 2.6184 22.98 0.5 18.9086 0.5Z" fill="#DAC5A7"/>
<path d="M39.7579 22.8934C38.7292 23.9221 37.334 24.5 35.8792 24.5C33.4439 24.5 31.3792 22.913 30.6631 20.7167L26.1921 25.1877C28.2319 28.3819 31.8082 30.5 35.8792 30.5C38.9253 30.5 41.8466 29.2899 44.0005 27.136L63.0299 8.1066C64.0586 7.07791 65.4538 6.5 66.9086 6.5C69.9381 6.5 72.3939 8.95584 72.3939 11.9853C72.3939 13.4401 71.816 14.8353 70.7873 15.864L63.7579 22.8934C62.7292 23.9221 61.334 24.5 59.8792 24.5C57.4437 24.5 55.3789 22.9127 54.6629 20.7162L50.1919 25.1873C52.2316 28.3818 55.808 30.5 59.8792 30.5C62.9253 30.5 65.8466 29.2899 68.0005 27.136L75.0299 20.1066C77.1838 17.9527 78.3939 15.0314 78.3939 11.9853C78.3939 5.64214 73.2518 0.5 66.9086 0.5C63.8625 0.5 60.9412 1.71005 58.7873 3.86396L39.7579 22.8934Z" fill="#DAC5A7"/>
</g>
<defs>
<clipPath id="clip0_1_245">
<rect width="78" height="30" fill="white" transform="translate(0.393921 0.5)"/>
</clipPath>
</defs>
</svg>
